<svg xmlns="http://www.w3.org/2000/svg"><g font-family="sans-serif" font-size="10" transform="translate(133.33333333333334,147.5)"><g fill="none" stroke="#555" stroke-opacity="0.4" stroke-width="1.5"><path d="M0,0C200,0,200,-132.5,400,-132.5"></path><path d="M0,0C200,0,200,-72.5,400,-72.5"></path><path d="M0,0C200,0,200,0,400,0"></path><path d="M0,0C200,0,200,37.5,400,37.5"></path><path d="M0,0C200,0,200,67.5,400,67.5"></path><path d="M0,0C200,0,200,92.5,400,92.5"></path><path d="M0,0C200,0,200,112.5,400,112.5"></path><path d="M0,0C200,0,200,132.5,400,132.5"></path><path d="M400,-132.5C600,-132.5,600,-132.5,800,-132.5"></path><path d="M400,-72.5C600,-72.5,600,-112.5,800,-112.5"></path><path d="M400,-72.5C600,-72.5,600,-102.5,800,-102.5"></path><path d="M400,-72.5C600,-72.5,600,-92.5,800,-92.5"></path><path d="M400,-72.5C600,-72.5,600,-62.5,800,-62.5"></path><path d="M400,-72.5C600,-72.5,600,-47.5,800,-47.5"></path><path d="M400,-72.5C600,-72.5,600,-32.5,800,-32.5"></path><path d="M400,0C600,0,600,-12.5,800,-12.5"></path><path d="M400,0C600,0,600,12.5,800,12.5"></path><path d="M400,37.5C600,37.5,600,32.5,800,32.5"></path><path d="M400,37.5C600,37.5,600,42.5,800,42.5"></path><path d="M400,67.5C600,67.5,600,62.5,800,62.5"></path><path d="M400,67.5C600,67.5,600,72.5,800,72.5"></path><path d="M400,92.5C600,92.5,600,92.5,800,92.5"></path><path d="M400,112.5C600,112.5,600,112.5,800,112.5"></path><path d="M400,132.5C600,132.5,600,132.5,800,132.5"></path><path d="M800,-132.5C1000,-132.5,1000,-137.5,1200,-137.5"></path><path d="M800,-132.5C1000,-132.5,1000,-127.5,1200,-127.5"></path><path d="M800,-92.5C1000,-92.5,1000,-92.5,1200,-92.5"></path><path d="M800,-62.5C1000,-62.5,1000,-72.5,1200,-72.5"></path><path d="M800,-62.5C1000,-62.5,1000,-62.5,1200,-62.5"></path><path d="M800,-62.5C1000,-62.5,1000,-52.5,1200,-52.5"></path><path d="M800,-32.5C1000,-32.5,1000,-32.5,1200,-32.5"></path><path d="M800,-12.5C1000,-12.5,1000,-12.5,1200,-12.5"></path><path d="M800,12.5C1000,12.5,1000,7.5,1200,7.5"></path><path d="M800,12.5C1000,12.5,1000,17.5,1200,17.5"></path><path d="M800,62.5C1000,62.5,1000,52.5,1200,52.5"></path><path d="M800,62.5C1000,62.5,1000,62.5,1200,62.5"></path><path d="M800,62.5C1000,62.5,1000,72.5,1200,72.5"></path><path d="M800,112.5C1000,112.5,1000,112.5,1200,112.5"></path><path d="M800,132.5C1000,132.5,1000,132.5,1200,132.5"></path><path d="M1200,-127.5C1400,-127.5,1400,-127.5,1600,-127.5"></path><path d="M1200,-32.5C1400,-32.5,1400,-32.5,1600,-32.5"></path><path d="M1200,72.5C1400,72.5,1400,67.5,1600,67.5"></path><path d="M1200,72.5C1400,72.5,1400,77.5,1600,77.5"></path></g><g stroke-linejoin="round" stroke-width="1"><g transform="translate(0,0)"><text dy="0.31em" x="30" text-anchor="end">???</text><rect height="20" width="50" fill="white" stroke="black"></rect><text dy="0.31em" x="30" text-anchor="end">???</text></g><g transform="translate(400,-132.5)"><text dy="0.31em" x="30" text-anchor="end">Стёганцев Антон Маркович</text><rect height="20" width="50" fill="white" stroke="black"></rect><text dy="0.31em" x="30" text-anchor="end">Стёганцев Антон Маркович</text></g><g transform="translate(400,-72.5)"><text dy="0.31em" x="30" text-anchor="end">Хухрина Ольга Сергеевна</text><rect height="20" width="50" fill="white" stroke="black"></rect><text dy="0.31em" x="30" text-anchor="end">Хухрина Ольга Сергеевна</text></g><g transform="translate(400,0)"><text dy="0.31em" x="30" text-anchor="end">Кондратьева Наталья Владимировна</text><rect height="20" width="50" fill="white" stroke="black"></rect><text dy="0.31em" x="30" text-anchor="end">Кондратьева Наталья Владимировна</text></g><g transform="translate(400,37.5)"><text dy="0.31em" x="30" text-anchor="end">Михеева Антонина Юрьевна</text><rect height="20" width="50" fill="white" stroke="black"></rect><text dy="0.31em" x="30" text-anchor="end">Михеева Антонина Юрьевна</text></g><g transform="translate(400,67.5)"><text dy="0.31em" x="30" text-anchor="end">Щербатый Александр Андреевич</text><rect height="20" width="50" fill="white" stroke="black"></rect><text dy="0.31em" x="30" text-anchor="end">Щербатый Александр Андреевич</text></g><g transform="translate(400,92.5)"><text dy="0.31em" x="30" text-anchor="end">Ковальчук Анатолий Вячеславович</text><rect height="20" width="50" fill="white" stroke="black"></rect><text dy="0.31em" x="30" text-anchor="end">Ковальчук Анатолий Вячеславович</text></g><g transform="translate(400,112.5)"><text dy="0.31em" x="30" text-anchor="end">Шильман Ирина Борисовна</text><rect height="20" width="50" fill="white" stroke="black"></rect><text dy="0.31em" x="30" text-anchor="end">Шильман Ирина Борисовна</text></g><g transform="translate(400,132.5)"><text dy="0.31em" x="30" text-anchor="end">Муршаева Екатерина Сергеевна</text><rect height="20" width="50" fill="white" stroke="black"></rect><text dy="0.31em" x="30" text-anchor="end">Муршаева Екатерина Сергеевна</text></g><g transform="translate(800,-132.5)"><text dy="0.31em" x="30" text-anchor="end">Мордовченко Глеб Петрович</text><rect height="20" width="50" fill="white" stroke="black"></rect><text dy="0.31em" x="30" text-anchor="end">Мордовченко Глеб Петрович</text></g><g transform="translate(800,-112.5)"><text dy="0.31em" x="30" text-anchor="end">Лебедев Павел Владимирович</text><rect height="20" width="50" fill="white" stroke="black"></rect><text dy="0.31em" x="30" text-anchor="end">Лебедев Павел Владимирович</text></g><g transform="translate(800,-102.5)"><text dy="0.31em" x="30" text-anchor="end">Андрей Владимирович</text><rect height="20" width="50" fill="white" stroke="black"></rect><text dy="0.31em" x="30" text-anchor="end">Андрей Владимирович</text></g><g transform="translate(800,-92.5)"><text dy="0.31em" x="30" text-anchor="end">Вотчицев Павел Юрьевич</text><rect height="20" width="50" fill="white" stroke="black"></rect><text dy="0.31em" x="30" text-anchor="end">Вотчицев Павел Юрьевич</text></g><g transform="translate(800,-62.5)"><text dy="0.31em" x="30" text-anchor="end">Петрова Елена Владимировна</text><rect height="20" width="50" fill="white" stroke="black"></rect><text dy="0.31em" x="30" text-anchor="end">Петрова Елена Владимировна</text></g><g transform="translate(800,-47.5)"><text dy="0.31em" x="30" text-anchor="end">Русинова Ольга Викторовна</text><rect height="20" width="50" fill="white" stroke="black"></rect><text dy="0.31em" x="30" text-anchor="end">Русинова Ольга Викторовна</text></g><g transform="translate(800,-32.5)"><text dy="0.31em" x="30" text-anchor="end">Смоляк (Вышегородцева) Александра Евгеньевна</text><rect height="20" width="50" fill="white" stroke="black"></rect><text dy="0.31em" x="30" text-anchor="end">Смоляк (Вышегородцева) Александра Евгеньевна</text></g><g transform="translate(800,-12.5)"><text dy="0.31em" x="30" text-anchor="end">Охотин Александр Сергеевич</text><rect height="20" width="50" fill="white" stroke="black"></rect><text dy="0.31em" x="30" text-anchor="end">Охотин Александр Сергеевич</text></g><g transform="translate(800,12.5)"><text dy="0.31em" x="30" text-anchor="end">Стерлегов Олег Олегович</text><rect height="20" width="50" fill="white" stroke="black"></rect><text dy="0.31em" x="30" text-anchor="end">Стерлегов Олег Олегович</text></g><g transform="translate(800,32.5)"><text dy="0.31em" x="30" text-anchor="end">Татауров Владимир Александрович</text><rect height="20" width="50" fill="white" stroke="black"></rect><text dy="0.31em" x="30" text-anchor="end">Татауров Владимир Александрович</text></g><g transform="translate(800,42.5)"><text dy="0.31em" x="30" text-anchor="end">Лемешев Виктор Сергеевич</text><rect height="20" width="50" fill="white" stroke="black"></rect><text dy="0.31em" x="30" text-anchor="end">Лемешев Виктор Сергеевич</text></g><g transform="translate(800,62.5)"><text dy="0.31em" x="30" text-anchor="end">Васильев Антон Аркадьевич</text><rect height="20" width="50" fill="white" stroke="black"></rect><text dy="0.31em" x="30" text-anchor="end">Васильев Антон Аркадьевич</text></g><g transform="translate(800,72.5)"><text dy="0.31em" x="30" text-anchor="end">Фокина Лариса Владимировна</text><rect height="20" width="50" fill="white" stroke="black"></rect><text dy="0.31em" x="30" text-anchor="end">Фокина Лариса Владимировна</text></g><g transform="translate(800,92.5)"><text dy="0.31em" x="30" text-anchor="end">Евдокимова Евгения Вадимовна</text><rect height="20" width="50" fill="white" stroke="black"></rect><text dy="0.31em" x="30" text-anchor="end">Евдокимова Евгения Вадимовна</text></g><g transform="translate(800,112.5)"><text dy="0.31em" x="30" text-anchor="end">Енькова Екатерина Евгеньевна</text><rect height="20" width="50" fill="white" stroke="black"></rect><text dy="0.31em" x="30" text-anchor="end">Енькова Екатерина Евгеньевна</text></g><g transform="translate(800,132.5)"><text dy="0.31em" x="30" text-anchor="end">Коврижных Татьяна Юрьевна</text><rect height="20" width="50" fill="white" stroke="black"></rect><text dy="0.31em" x="30" text-anchor="end">Коврижных Татьяна Юрьевна</text></g><g transform="translate(1200,-137.5)"><text dy="0.31em" x="30" text-anchor="end">Козырев Артем Анатольевич</text><rect height="20" width="50" fill="white" stroke="black"></rect><text dy="0.31em" x="30" text-anchor="end">Козырев Артем Анатольевич</text></g><g transform="translate(1200,-127.5)"><text dy="0.31em" x="30" text-anchor="end">Миклин Алексей Генадьевич</text><rect height="20" width="50" fill="white" stroke="black"></rect><text dy="0.31em" x="30" text-anchor="end">Миклин Алексей Генадьевич</text></g><g transform="translate(1200,-92.5)"><text dy="0.31em" x="30" text-anchor="end">Русакова Ольга Евгеньевна</text><rect height="20" width="50" fill="white" stroke="black"></rect><text dy="0.31em" x="30" text-anchor="end">Русакова Ольга Евгеньевна</text></g><g transform="translate(1200,-72.5)"><text dy="0.31em" x="30" text-anchor="end">Жирнова Наталья Александровна</text><rect height="20" width="50" fill="white" stroke="black"></rect><text dy="0.31em" x="30" text-anchor="end">Жирнова Наталья Александровна</text></g><g transform="translate(1200,-62.5)"><text dy="0.31em" x="30" text-anchor="end">Тренькина Людмила Юрьевна</text><rect height="20" width="50" fill="white" stroke="black"></rect><text dy="0.31em" x="30" text-anchor="end">Тренькина Людмила Юрьевна</text></g><g transform="translate(1200,-52.5)"><text dy="0.31em" x="30" text-anchor="end">Ягупов Антон Владимирович</text><rect height="20" width="50" fill="white" stroke="black"></rect><text dy="0.31em" x="30" text-anchor="end">Ягупов Антон Владимирович</text></g><g transform="translate(1200,-32.5)"><text dy="0.31em" x="30" text-anchor="end">Скворцова (Бондаренко) Юлия Сергеевна</text><rect height="20" width="50" fill="white" stroke="black"></rect><text dy="0.31em" x="30" text-anchor="end">Скворцова (Бондаренко) Юлия Сергеевна</text></g><g transform="translate(1200,-12.5)"><text dy="0.31em" x="30" text-anchor="end">Стерлегова Юлия Олеговна</text><rect height="20" width="50" fill="white" stroke="black"></rect><text dy="0.31em" x="30" text-anchor="end">Стерлегова Юлия Олеговна</text></g><g transform="translate(1200,7.5)"><text dy="0.31em" x="30" text-anchor="end">Носова Екатерина Михайловна</text><rect height="20" width="50" fill="white" stroke="black"></rect><text dy="0.31em" x="30" text-anchor="end">Носова Екатерина Михайловна</text></g><g transform="translate(1200,17.5)"><text dy="0.31em" x="30" text-anchor="end">Толстых Татьяна Викторовна</text><rect height="20" width="50" fill="white" stroke="black"></rect><text dy="0.31em" x="30" text-anchor="end">Толстых Татьяна Викторовна</text></g><g transform="translate(1200,52.5)"><text dy="0.31em" x="30" text-anchor="end">Коробейников Дмитрий Сергеевич</text><rect height="20" width="50" fill="white" stroke="black"></rect><text dy="0.31em" x="30" text-anchor="end">Коробейников Дмитрий Сергеевич</text></g><g transform="translate(1200,62.5)"><text dy="0.31em" x="30" text-anchor="end">Рощина Наталья Алексеевна</text><rect height="20" width="50" fill="white" stroke="black"></rect><text dy="0.31em" x="30" text-anchor="end">Рощина Наталья Алексеевна</text></g><g transform="translate(1200,72.5)"><text dy="0.31em" x="30" text-anchor="end">Веселов Михаил Александрович</text><rect height="20" width="50" fill="white" stroke="black"></rect><text dy="0.31em" x="30" text-anchor="end">Веселов Михаил Александрович</text></g><g transform="translate(1200,112.5)"><text dy="0.31em" x="30" text-anchor="end">Трост Анна Леонидовна</text><rect height="20" width="50" fill="white" stroke="black"></rect><text dy="0.31em" x="30" text-anchor="end">Трост Анна Леонидовна</text></g><g transform="translate(1200,132.5)"><text dy="0.31em" x="30" text-anchor="end">Барабанова Зоя Андреевна</text><rect height="20" width="50" fill="white" stroke="black"></rect><text dy="0.31em" x="30" text-anchor="end">Барабанова Зоя Андреевна</text></g><g transform="translate(1600,-127.5)"><text dy="0.31em" x="30" text-anchor="end">Штин Алексей Андреевич</text><rect height="20" width="50" fill="white" stroke="black"></rect><text dy="0.31em" x="30" text-anchor="end">Штин Алексей Андреевич</text></g><g transform="translate(1600,-32.5)"><text dy="0.31em" x="30" text-anchor="end">Иванов Леонид Викторович</text><rect height="20" width="50" fill="white" stroke="black"></rect><text dy="0.31em" x="30" text-anchor="end">Иванов Леонид Викторович</text></g><g transform="translate(1600,67.5)"><text dy="0.31em" x="30" text-anchor="end">Шутов Сергей Владимирович</text><rect height="20" width="50" fill="white" stroke="black"></rect><text dy="0.31em" x="30" text-anchor="end">Шутов Сергей Владимирович</text></g><g transform="translate(1600,77.5)"><text dy="0.31em" x="30" text-anchor="end">Демидова Татьяна Валерьевна</text><rect height="20" width="50" fill="white" stroke="black"></rect><text dy="0.31em" x="30" text-anchor="end">Демидова Татьяна Валерьевна</text></g></g></g></svg>